<svg xmlns="http://www.w3.org/2000/svg" viewBox="0 0 534.02 229.1"><defs><style>.cls-1{fill:#fd2f85;}</style></defs><title>logo-secundario</title><g id="Layer_2" data-name="Layer 2"><g id="Layer_1-2" data-name="Layer 1"><path class="cls-1" d="M533.62,225.56l-51.85-75.75c28.27-12,46.8-35.1,46.8-69.87v-.65c0-22.42-6.83-40-20.15-53C493.14,10.72,469.1,1.63,434.33,1.63H299.4q4,1.21,7.72,2.74c26.93,11,44.12,37.65,44.12,66.73h0a159.54,159.54,0,0,1-1.54,22.3c-6.23,26.76-23.72,49.6-50.56,69l-37.16,26a.85.85,0,0,0,.49,1.54l88.81.05v36.88a2.26,2.26,0,0,0,2.26,2.26h57.32a2.26,2.26,0,0,0,2.26-2.26V188.48h25.34L462.59,228a2.26,2.26,0,0,0,1.93,1.08h67.24A2.26,2.26,0,0,0,533.62,225.56ZM465.2,83.84c0,16.57-12.35,27-33.8,27H413.08V56.22h18c21.12,0,34.12,9.1,34.12,27Z"/><path class="cls-1" d="M228.82,171.19a18.28,18.28,0,0,1-28.61-10.55c-.32-1.36-.72-2.78-1.19-4.24a71.08,71.08,0,0,1-9.59.9h-.37a20.6,20.6,0,0,1-11.22-3.37l-.1,0-8.21,2.48a12.58,12.58,0,0,1-13.78-4.59l-3.53-4.81a12.6,12.6,0,0,1-.26-14.52l4.52-6.63a20.65,20.65,0,0,1-.42-14.06,69.86,69.86,0,0,1,3.7-8.81q-1.78-1.26-3.51-2.28a18.32,18.32,0,0,1,1.27-32.15,68.12,68.12,0,0,1,30.39-7.35,64.45,64.45,0,0,1,6.5.33c1.29-1,2.6-2,3.9-3l.86-.62L185.84,26.63a2.22,2.22,0,0,1,.51-2.5c3.79-3.57,13.92-12,31-23.59a.29.29,0,0,0-.15-.54h-120A2.29,2.29,0,0,0,95.1,1.41L.18,226a2.26,2.26,0,0,0,2.08,3.14H63.62a2.25,2.25,0,0,0,2.09-1.42l15.69-39.2h87.74l16,39.21a2.28,2.28,0,0,0,2.1,1.41h62.66A2.26,2.26,0,0,0,252,226Zm-80.35-.25A10,10,0,0,1,144,173.3a9,9,0,0,1-4.77-.39c-5.65-2-14.23-.1-17.84,4a1.23,1.23,0,0,1-1.73-.16,1.18,1.18,0,0,1-.28-.66c-.48-4.41-.72-14.07,10.53-20.43a.25.25,0,0,0,0-.43,13.24,13.24,0,0,0-6.17-1.51,1.24,1.24,0,0,1-1.06-1.94C126,147.14,134.09,138,144,148.32c.19.25,5.59,8.16,5.8,8.4l.06.1C151.08,159,154.33,165.88,148.47,170.94Z"/><path class="cls-1" d="M291.44,50.4a5.68,5.68,0,0,0-1-2.09h0a5.27,5.27,0,0,0-.88-.94l-.33-.25a5.48,5.48,0,0,0-.72-.46,4,4,0,0,0-.42-.2,4.78,4.78,0,0,0-.75-.27l-.44-.11a8,8,0,0,0-.84-.1l-.42,0-.32,0a6.06,6.06,0,0,0-.71.1l-.34.08a7,7,0,0,0-.69.24l-.31.13a5.39,5.39,0,0,0-.92.54,5.92,5.92,0,0,0-1.28,1.32,5.66,5.66,0,0,0-1,2.44,5.56,5.56,0,0,0,0,1.47l-2.6,1.9L276,55.29c-.18-.19-.39-.38-.6-.57l-.09-.08c-.19-.17-.39-.35-.61-.53l-.23-.18-.55-.45-.3-.22-.58-.43-.36-.24-.61-.42-.41-.24c-.22-.14-.43-.28-.66-.41l-.44-.24-.73-.4-.49-.24-.77-.37L268,50c-.26-.12-.53-.23-.81-.34l-.61-.23-.85-.31-.67-.21c-.3-.09-.59-.19-.9-.27l-.73-.19-.94-.23-.81-.16-1-.19-.87-.12-1-.14-.94-.08c-.35,0-.69-.07-1.05-.09s-.67,0-1,0-.73,0-1.1,0l-1.13,0-1.06,0c-.4,0-.8,0-1.21.08l-1.1.08-1.28.16-1.14.14-1.36.23-1.18.21c-.47.09-1,.21-1.44.32l-1.21.27c-.5.12-1,.27-1.52.41s-.83.21-1.25.34-1.07.33-1.6.5l-1.3.42c-.55.18-1.12.4-1.68.61l-1.33.48-1.78.73L230.8,53c-.62.26-1.25.56-1.88.85l-1.38.63c-.65.31-1.32.66-2,1l-1.41.71c-.69.36-1.39.75-2.1,1.14l-1.41.77c-.73.41-1.49.87-2.24,1.31-.47.28-.93.54-1.4.83-.8.48-1.62,1-2.44,1.53l-1.34.84c-.94.62-1.92,1.28-2.89,1.95l-1,.68q-2,1.36-4,2.88c-.47.34-.91.7-1.37,1h0c-2.09,1.57-4.11,3.18-6,4.82a53.49,53.49,0,0,0-10-.94,56.35,56.35,0,0,0-25.17,6.12,5.4,5.4,0,0,0-.81.48,6.4,6.4,0,0,0-1.33,1.2,6.58,6.58,0,0,0,.22,8.62,6.39,6.39,0,0,0,1.44,1.15c.88.52,1.81,1.11,2.79,1.76.49.32,1,.66,1.49,1a87.12,87.12,0,0,1,8.37,6.78,85.86,85.86,0,0,0-5.57,10.14c-.28.63-.55,1.24-.8,1.84-.5,1.2-.93,2.34-1.3,3.43a8.75,8.75,0,0,0-.32,4.21,9.36,9.36,0,0,0,1.66,3.9l13.3,18.12a9,9,0,0,0,7.18,3.7h.16l1.77-.06c1.23-.07,2.53-.19,3.89-.36a84.84,84.84,0,0,0,11.38-2.29A78.63,78.63,0,0,1,211.69,158a6.52,6.52,0,0,0,11.06,3,56.18,56.18,0,0,0,13.44-22.34,55.12,55.12,0,0,0,1.5-6c.24-1.33.44-2.64.59-3.94q1.91-1.19,3.82-2.48t3.8-2.69a132.39,132.39,0,0,0,22-19.72q2.28-2.62,4.12-5.13c1.23-1.67,2.32-3.3,3.29-4.89A47.82,47.82,0,0,0,281,80.63a35.91,35.91,0,0,0,.77-3.79c.09-.61.16-1.2.21-1.78a28.33,28.33,0,0,0-2.17-14.23l-.36-.77,4.1-3a7.34,7.34,0,0,0,1,.31l.22,0a5.67,5.67,0,0,0,1,.1H286l.56,0,.3-.05.52-.13.3-.09a4,4,0,0,0,.53-.22l.25-.11a6.24,6.24,0,0,0,.73-.45,5.67,5.67,0,0,0,2-2.72A5.76,5.76,0,0,0,291.44,50.4ZM259.11,81.6a11.69,11.69,0,0,1-.91,2.69,11.47,11.47,0,0,1-3.57,4.38h0a12,12,0,0,1-1.85,1.09c-.2.1-.41.17-.62.25a11.73,11.73,0,0,1-1.37.48l-.71.17a13.45,13.45,0,0,1-1.42.19l-.64,0-.26,0a11.19,11.19,0,0,1-1.63-.13l-.36-.06a12.1,12.1,0,0,1-1.95-.49h0a11.77,11.77,0,0,1-1.83-.87l-.33-.18A12.12,12.12,0,0,1,240.06,88l-.28-.26a10.82,10.82,0,0,1-1.42-1.59,11.64,11.64,0,0,1,.74-14.69,11,11,0,0,1,1.75-1.58,11.79,11.79,0,0,1,1.86-1.1c.21-.1.41-.17.62-.25a11.26,11.26,0,0,1,1.38-.48l.7-.17a14.19,14.19,0,0,1,1.42-.19c.22,0,.43,0,.64,0l.26,0a11.08,11.08,0,0,1,1.63.13l.36.06a11.84,11.84,0,0,1,1.95.49h0a12.21,12.21,0,0,1,1.83.86l.33.19a11.28,11.28,0,0,1,1.59,1.18c.1.08.19.18.28.26a12,12,0,0,1,1.43,1.58h0a11.62,11.62,0,0,1,2.25,6.43A11.81,11.81,0,0,1,259.11,81.6Z"/><path class="cls-1" d="M158.15,142.69l3.54,4.81a5.16,5.16,0,0,0,5.7,1.9l8.21-2.48-4-5.49-8.7-11.84-4.83,7.09A5.22,5.22,0,0,0,158.15,142.69Z"/></g></g></svg>