<svg xmlns="http://www.w3.org/2000/svg" viewBox="0 0 660.75 616.24">
  <title>a2r_imagotype</title>
  <g>
    <path d="M659.41,16.57a24.55,24.55,0,0,0-5-8.47h0a24.7,24.7,0,0,0-4.17-3.65c-.48-.34-1-.59-1.49-.89a25.09,25.09,0,0,0-3.25-1.69c-.61-.25-1.23-.45-1.85-.65a22.57,22.57,0,0,0-3.31-.83c-.64-.12-1.28-.23-1.92-.29A24.15,24.15,0,0,0,634.83,0c-.6,0-1.2,0-1.81.07-.44.06-.88.16-1.33.24a23.89,23.89,0,0,0-3,.71c-.49.15-1,.31-1.44.49a25.88,25.88,0,0,0-2.84,1.3c-.41.22-.83.41-1.23.65a25.85,25.85,0,0,0-3.71,2.71,24.37,24.37,0,0,0-4.88,6.15,24.65,24.65,0,0,0-3.2,10.78,25.41,25.41,0,0,0,.43,6.27L601.6,38.6l-5.83,5.23c-.87-.71-1.81-1.43-2.82-2.18l-.38-.28c-.9-.65-1.83-1.32-2.82-2l-1-.69c-.84-.55-1.66-1.11-2.56-1.67l-1.34-.8c-.87-.53-1.73-1.06-2.67-1.59-.51-.29-1.07-.58-1.6-.87-.92-.5-1.83-1-2.8-1.51-.59-.3-1.22-.59-1.83-.88-1-.49-1.95-1-3-1.45-.64-.29-1.33-.56-2-.85-1.07-.46-2.13-.93-3.25-1.37-.71-.29-1.47-.55-2.21-.83-1.13-.42-2.24-.85-3.42-1.26-.79-.27-1.64-.52-2.46-.78-1.18-.38-2.35-.76-3.58-1.11-.87-.25-1.79-.47-2.69-.71-1.24-.33-2.47-.66-3.76-1-1-.22-2-.41-2.95-.61-1.3-.27-2.58-.55-3.93-.79-1-.18-2.13-.33-3.2-.49-1.35-.2-2.69-.42-4.08-.59-1.14-.14-2.34-.23-3.51-.34-1.39-.14-2.77-.29-4.2-.39-1.23-.08-2.51-.11-3.77-.16-1.45-.06-2.88-.14-4.37-.16-1.31,0-2.68,0-4,0s-3,0-4.52.08-2.87.18-4.31.27-3.09.19-4.69.34-3.19.36-4.8.55-3,.34-4.5.57-3.39.56-5.09.85-3.08.51-4.66.83c-1.76.34-3.57.78-5.37,1.18-1.6.36-3.17.69-4.8,1.1-1.85.46-3.76,1-5.66,1.54-1.64.46-3.27.88-4.94,1.39-2,.59-4,1.28-6,1.94-1.69.55-3.34,1.06-5.06,1.67-2.06.73-4.19,1.56-6.3,2.37-1.72.65-3.42,1.26-5.17,2-2.16.87-4.39,1.86-6.59,2.81-1.78.77-3.52,1.49-5.33,2.31-2.26,1-4.59,2.18-6.9,3.29-1.82.88-3.6,1.7-5.44,2.63-2.39,1.21-4.85,2.55-7.29,3.85-1.84,1-3.64,1.9-5.51,2.93-2.5,1.39-5.08,2.92-7.63,4.41-1.88,1.1-3.71,2.12-5.61,3.27-2.62,1.58-5.32,3.32-8,5-1.9,1.2-3.77,2.34-5.71,3.6-2.77,1.81-5.62,3.79-8.45,5.73-1.9,1.29-3.76,2.51-5.68,3.86-3,2.08-6,4.33-9,6.53-1.88,1.38-3.72,2.67-5.62,4.1-3.19,2.4-6.46,5-9.71,7.54-1.79,1.39-3.53,2.7-5.34,4.14-3.77,3-7.63,6.25-11.48,9.48-1.35,1.12-2.66,2.16-4,3.31q-7.87,6.68-16,14c-1.86,1.66-3.59,3.36-5.4,5h0c-8.21,7.58-16.13,15.25-23.58,23a230.72,230.72,0,0,0-42.83.19c-32.91,3.23-68.24,14-104.48,36.57a28.49,28.49,0,0,0-3.27,2.37,27.45,27.45,0,0,0-9.34,15.76,27.49,27.49,0,0,0,15.34,30.76c4,1.86,8.19,3.95,12.61,6.31q3.32,1.77,6.78,3.74A368.94,368.94,0,0,1,184.69,277a361.15,361.15,0,0,0-19.45,45.46c-1,2.78-1.84,5.49-2.65,8.15-1.63,5.3-3,10.36-4.07,15.12a37.21,37.21,0,0,0,.4,18.05,38.64,38.64,0,0,0,3.38,8.41,39.07,39.07,0,0,0,5.29,7.49l64.13,71.48a38.31,38.31,0,0,0,32.12,12.76l.65-.07q3.66-.42,7.54-1c5.17-.8,10.65-1.85,16.39-3.15a363,363,0,0,0,47.42-14.48c14.5,24.43,23.68,45.33,29.42,62.16a27.9,27.9,0,0,0,48.3,8c26.55-33.84,41.09-68.05,47.81-100.63a230.57,230.57,0,0,0,3.84-26.25c.5-5.73.78-11.4.86-17q7.62-5.88,15.2-12.17t15.07-13c37.61-33.74,65.24-64.8,85.26-93.07q8.58-12.12,15.35-23.55c4.54-7.62,8.5-15,12-22.16,10.36-21.47,16.13-40.83,18.78-58a158.05,158.05,0,0,0,1.67-16.46c.12-2.62.18-5.18.16-7.67-.16-27.48-8.29-47.5-15.21-59.61-.63-1.1-1.25-2.13-1.85-3.1l16.2-14.54a24.65,24.65,0,0,0,4.41.9l.94.11a24.53,24.53,0,0,0,4.37,0c.36,0,.71-.1,1.07-.14.79-.11,1.57-.24,2.35-.42.42-.1.84-.22,1.26-.34.72-.21,1.44-.46,2.15-.73.41-.17.82-.33,1.22-.52a23.64,23.64,0,0,0,2.17-1.14c.33-.2.67-.38,1-.59a24.92,24.92,0,0,0,2.95-2.24,24.77,24.77,0,0,0,6.86-26.48ZM535,162.79a51.39,51.39,0,0,1-16.1,32l0,0a49.2,49.2,0,0,1-7.42,5.42c-.82.5-1.68.89-2.52,1.34a49.46,49.46,0,0,1-5.65,2.59c-1,.37-1.95.71-2.94,1a47.35,47.35,0,0,1-6,1.42c-.9.16-1.79.37-2.7.48-.37.05-.73.16-1.09.2a52.63,52.63,0,0,1-7,.14c-.52,0-1-.08-1.55-.12a49.85,49.85,0,0,1-8.5-1.28h0a49.18,49.18,0,0,1-8.15-2.91c-.49-.21-1-.41-1.46-.65a48.28,48.28,0,0,1-7.28-4.35c-.44-.31-.86-.66-1.28-1a49.63,49.63,0,0,1-2.93-76.4,49,49,0,0,1,7.46-5.45c.82-.5,1.67-.89,2.51-1.34a48.82,48.82,0,0,1,5.66-2.59c1-.37,1.94-.71,2.93-1a47.92,47.92,0,0,1,6-1.42c.9-.16,1.79-.37,2.69-.48.37,0,.73-.16,1.1-.2a52.44,52.44,0,0,1,7-.14c.52,0,1,.08,1.56.12a49.74,49.74,0,0,1,8.49,1.28h0a50.29,50.29,0,0,1,8.14,2.9c.49.22,1,.42,1.47.66a49.84,49.84,0,0,1,7.27,4.34c.44.32.86.67,1.3,1a50,50,0,0,1,6.7,6.11s0,0,0,0A48.11,48.11,0,0,1,535,162.79Z" fill="#fff"/>
    <path d="M145.84,407.15l-17.59,32.17a22.24,22.24,0,0,0,3,25.53l17,19a22.26,22.26,0,0,0,25.06,5.7l33.88-14-19.42-21.64Z" fill="#fff"/>
    <path d="M123.46,516.84c-1-.94-27.24-32.32-28.18-33.3-46.37-39.63-77,2.51-89,23.72a5.26,5.26,0,0,0,.6,6,5.19,5.19,0,0,0,4.69,1.82,56.83,56.83,0,0,1,26.88,3.82,1.07,1.07,0,0,1,.17,1.86C-6.53,552.52-1.46,593.48,2.43,612.05a5.26,5.26,0,0,0,8.89,2.63C25,595.62,60.64,584,85.51,590.07a38.29,38.29,0,0,0,20.43-.35c6.49-2,11.94-5.73,17.91-11.85,22.83-24,6.12-52-.07-60.66A2.83,2.83,0,0,0,123.46,516.84Z" fill="#fff"/>
  </g>
</svg>
